# xmcd
#
# Track frame offsets: 
#        150
#        11842
#        23960
#        39550
#        51925
#        64082
#        85865
#        98340
#        109035
#        126690
#        138122
#        154722
#        165812
#        177422
#        192805
#        205987
#        219207
#        237982
#        250927
#        270967
#        281825
#        294890
#        308110
#        324510
#        336817
#
# Disc length: 4565 seconds
#
# Revision: 0
# Processed by: cddbd v1.5PL3 Copyright (c) Steve Scherf et al.
# Submitted via: ExactAudioCopy v0.90b4
#
DISCID=5b11d319
DTITLE=Karel Hala - Ja zil, jak jsem zil
DYEAR=2001
DGENRE=Big Band
TTITLE0=Ja zil, jak jsem zil
TTITLE1=Slys pisne my
TTITLE2=Dej mi par okovu
TTITLE3=Ach ta neznama
TTITLE4=Nad Berounkou
TTITLE5=Beal Street Blues
TTITLE6=Toulavej vuz
TTITLE7=Vypalte salvu
TTITLE8=Pokani
TTITLE9=Ruzova nalada
TTITLE10=Ma pout
TTITLE11=Hadej, Matyldo
TTITLE12=Muj otcenas
TTITLE13=Na sedm strun budu hrat
TTITLE14=Hloboko, hluboko
TTITLE15=Vopravdu sam
TTITLE16=Lodi bilou
TTITLE17=Chci zapomenout
TTITLE18=Patri ti velkej dik
TTITLE19=Prosty lek
TTITLE20=Ma dlan, tvuj dech, ja vim
TTITLE21=Kalna reka
TTITLE22=Smutna nedele
TTITLE23=Vrat se do Sorrenta
TTITLE24=Toci se svet
EXTD=Typed in by Kath
EXTT0=
EXTT1=
EXTT2=
EXTT3=
EXTT4=
EXTT5=
EXTT6=
EXTT7=
EXTT8=
EXTT9=
EXTT10=
EXTT11=
EXTT12=
EXTT13=
EXTT14=
EXTT15=
EXTT16=
EXTT17=
EXTT18=
EXTT19=
EXTT20=
EXTT21=
EXTT22=
EXTT23=
EXTT24=
PLAYORDER=
